<?xml version="1.0" encoding="utf-8"?>
<svg version="1.1" id="Layer_1" xmlns="http://www.w3.org/2000/svg" xmlns:xlink="http://www.w3.org/1999/xlink" x="0px" y="0px"
	 viewBox="0 0 612 792" enable-background="new 0 0 612 792" xml:space="preserve">
<path fill-rule="evenodd" clip-rule="evenodd" fill="#FFFFFF" id="path0_fill" d="M 5.9646 0L 5.9444 0C 2.66217 0 0 2.66217 0 5.9444L 5.9646 5.9444L 5.9646 0ZM 0 10.0556C 0 13.3378 2.66217 16 5.9444 16L 5.9646 16L 5.9646 10.0556L 0 10.0556ZM 10.0758 5.9444L 10.0758 0C 13.3513 0.0134888 16 2.66888 16 5.9444L 10.0758 5.9444ZM 10.0758 16C 13.3513 15.9865 16 13.3311 16 10.0556L 10.0758 10.0556L 10.0758 16ZM 10.7225 8.02222C 10.7225 9.48499 9.53674 10.6708 8.07397 10.6708C 6.61121 10.6708 5.42542 9.48499 5.42542 8.02222C 5.42542 6.55945 6.61121 5.3736 8.07397 5.3736C 9.53674 5.3736 10.7225 6.55945 10.7225 8.02222Z"/>
</svg>
